<svg version="1.1" id="Layer_1" xmlns="http://www.w3.org/2000/svg" xmlns:xlink="http://www.w3.org/1999/xlink" x="0px" y="0px"
	 width="100%" viewBox="0 0 534 534" enable-background="new 0 0 534 534" xml:space="preserve">
<path fill="#1C2238" opacity="1.000000" stroke="none" 
	d="
M311.000000,535.000000 
	C207.357468,535.000000 104.214928,535.000000 1.072388,535.000000 
	C1.048257,534.857483 1.002978,534.715027 1.002976,534.572510 
	C0.999974,356.780762 1.000000,178.989029 1.000000,1.098643 
	C178.892548,1.098643 356.785187,1.098643 534.838867,1.098643 
	C534.838867,178.999878 534.838867,356.999939 534.838867,535.000000 
	C460.464813,535.000000 385.982391,535.000000 311.000000,535.000000 
M412.252258,355.309509 
	C401.692108,347.847900 391.131958,340.386322 380.608154,332.950378 
	C381.135132,331.725861 381.369781,331.108643 381.659241,330.518280 
	C396.009705,301.249237 400.597961,270.540527 395.943878,238.259262 
	C386.594086,173.407547 331.189667,118.804550 266.147858,110.839432 
	C262.242950,110.361229 259.501221,108.838600 256.858978,105.959053 
	C233.889175,80.926666 210.779358,56.022724 187.697113,31.093590 
	C182.719223,25.717390 181.153229,25.635494 175.715988,30.254566 
	C127.213097,71.458977 78.708893,112.661850 30.207640,153.868179 
	C23.713047,159.385941 23.595947,161.012787 29.682199,166.873489 
	C50.437973,186.860153 71.218002,206.821808 92.056572,226.722015 
	C94.175415,228.745453 94.960541,230.524475 94.349976,233.650589 
	C90.936562,251.127640 90.682037,268.726624 93.549103,286.310181 
	C98.504021,316.698517 111.428680,343.256989 132.081955,366.102997 
	C133.404083,367.565521 134.639709,369.841278 134.586609,371.700714 
	C133.892944,395.987122 139.498474,419.278259 145.253998,442.581451 
	C146.427032,447.330933 148.842209,449.031433 153.661560,449.017426 
	C195.822220,448.894897 237.983582,448.884430 280.144073,449.029816 
	C284.986450,449.046509 287.338348,447.103546 288.907471,442.744934 
	C293.188110,430.854340 297.743195,419.061340 302.312195,407.277252 
	C302.931885,405.678986 303.925812,403.781494 305.302551,402.990997 
	C316.813812,396.381348 328.455292,389.998505 340.558044,383.268890 
	C340.640747,383.339844 341.545319,384.041656 342.365997,384.830750 
	C375.383331,416.576904 408.349121,448.376923 441.431732,480.054901 
	C450.795593,489.021179 462.190430,493.477905 475.142639,492.207397 
	C494.429749,490.315552 508.488373,478.011932 513.221497,459.790649 
	C517.673523,442.651276 510.851318,424.952087 495.315094,413.943329 
	C467.857849,394.487457 440.327911,375.134186 412.252258,355.309509 
M93.662781,363.868256 
	C94.831306,365.278870 95.988312,366.699219 97.170921,368.097931 
	C99.230675,370.534058 101.678093,371.793335 104.521141,369.562561 
	C107.525154,367.205475 106.956253,364.402863 104.881981,361.679108 
	C104.277168,360.884918 103.603867,360.143219 102.973770,359.367889 
	C85.994904,338.474976 75.464287,314.758545 71.828705,288.046021 
	C71.223732,283.600983 71.298088,279.007080 70.166542,274.717255 
	C69.699722,272.947510 66.800926,270.601532 65.150887,270.708923 
	C63.546734,270.813354 61.924656,273.592407 60.717140,275.459961 
	C60.198341,276.262360 60.671169,277.731262 60.753201,278.893097 
	C62.973415,310.338165 73.941330,338.422119 93.662781,363.868256 
M69.823296,235.876541 
	C65.599709,234.756302 63.526325,236.764771 62.873905,240.722427 
	C62.253262,244.487305 61.616688,248.253571 61.157982,252.039917 
	C60.774284,255.207092 61.865250,257.852234 65.281647,258.349274 
	C68.617271,258.834595 70.557533,256.891571 71.073006,253.592651 
	C71.687996,249.656784 72.604355,245.727371 72.731483,241.773972 
	C72.790344,239.943375 71.289085,238.062607 69.823296,235.876541 
z"/>
<path fill="#F6F6F7" opacity="1.000000" stroke="none" 
	d="
M412.540344,355.523743 
	C440.327911,375.134186 467.857849,394.487457 495.315094,413.943329 
	C510.851318,424.952087 517.673523,442.651276 513.221497,459.790649 
	C508.488373,478.011932 494.429749,490.315552 475.142639,492.207397 
	C462.190430,493.477905 450.795593,489.021179 441.431732,480.054901 
	C408.349121,448.376923 375.383331,416.576904 342.365997,384.830750 
	C341.545319,384.041656 340.640747,383.339844 340.558044,383.268890 
	C328.455292,389.998505 316.813812,396.381348 305.302551,402.990997 
	C303.925812,403.781494 302.931885,405.678986 302.312195,407.277252 
	C297.743195,419.061340 293.188110,430.854340 288.907471,442.744934 
	C287.338348,447.103546 284.986450,449.046509 280.144073,449.029816 
	C237.983582,448.884430 195.822220,448.894897 153.661560,449.017426 
	C148.842209,449.031433 146.427032,447.330933 145.253998,442.581451 
	C139.498474,419.278259 133.892944,395.987122 134.586609,371.700714 
	C134.639709,369.841278 133.404083,367.565521 132.081955,366.102997 
	C111.428680,343.256989 98.504021,316.698517 93.549103,286.310181 
	C90.682037,268.726624 90.936562,251.127640 94.349976,233.650589 
	C94.960541,230.524475 94.175415,228.745453 92.056572,226.722015 
	C71.218002,206.821808 50.437973,186.860153 29.682199,166.873489 
	C23.595947,161.012787 23.713047,159.385941 30.207640,153.868179 
	C78.708893,112.661850 127.213097,71.458977 175.715988,30.254566 
	C181.153229,25.635494 182.719223,25.717390 187.697113,31.093590 
	C210.779358,56.022724 233.889175,80.926666 256.858978,105.959053 
	C259.501221,108.838600 262.242950,110.361229 266.147858,110.839432 
	C331.189667,118.804550 386.594086,173.407547 395.943878,238.259262 
	C400.597961,270.540527 396.009705,301.249237 381.659241,330.518280 
	C381.369781,331.108643 381.135132,331.725861 380.608154,332.950378 
	C391.131958,340.386322 401.692108,347.847900 412.540344,355.523743 
M289.085144,126.227905 
	C269.629272,119.966270 249.719284,117.847214 229.408661,120.014259 
	C149.892670,128.498230 93.380196,199.719620 102.772415,279.524261 
	C111.125923,350.503113 171.610474,404.926086 243.035477,405.394806 
	C277.058136,405.618103 307.529541,395.035431 334.211639,373.800049 
	C339.531189,369.566437 340.969025,369.524200 345.295288,373.684845 
	C361.142487,388.925293 376.967529,404.188843 392.817352,419.426544 
	C411.669098,437.550201 430.394470,455.808777 449.451080,473.714630 
	C461.535248,485.069122 479.243378,485.513062 492.001251,475.437805 
	C509.722382,461.443024 508.289490,435.432281 488.940765,421.743927 
	C450.722900,394.706482 412.453461,367.742035 374.206696,340.745483 
	C368.080536,336.421387 367.850311,335.378296 371.203156,328.923920 
	C384.107880,304.081543 390.257446,277.709961 387.048553,249.809647 
	C380.039001,188.864105 347.130371,147.980988 289.085144,126.227905 
M140.173264,73.659569 
	C134.495758,78.475090 128.818237,83.290619 123.768150,87.573990 
	C138.233063,102.037010 152.326721,116.128815 166.681259,130.481476 
	C190.366837,116.442101 216.739990,109.513702 246.166260,109.085823 
	C223.933578,85.063644 202.730103,62.153507 181.167053,38.854862 
	C167.580444,50.384953 154.143356,61.788143 140.173264,73.659569 
M42.319187,165.031891 
	C60.630272,182.658463 78.941360,200.285019 97.882545,218.518143 
	C104.259285,197.645081 114.152306,179.566849 127.244102,163.860031 
	C112.949516,149.575180 98.868027,135.503281 84.383057,121.028168 
	C69.315773,133.826035 53.684486,147.102966 37.076164,161.209763 
	C39.035873,162.620377 40.388046,163.593674 42.319187,165.031891 
M149.923569,382.509216 
	C148.427750,381.354431 146.931915,380.199615 144.866394,378.605011 
	C144.708923,399.239471 149.604202,418.067871 154.394180,436.894714 
	C154.621552,437.788391 156.579498,438.782410 157.751373,438.807709 
	C165.571823,438.976318 173.399612,438.978638 181.219696,438.801331 
	C182.378448,438.775085 184.271271,437.731079 184.535767,436.794098 
	C187.364166,426.774231 189.932831,416.681030 192.630859,406.386353 
	C177.103683,400.507294 163.144775,392.888062 149.923569,382.509216 
M139.423431,150.979034 
	C145.080948,146.175766 150.738464,141.372513 155.742432,137.124115 
	C141.949844,123.272163 128.283249,109.546753 114.345230,95.548744 
	C107.462685,101.416222 100.202003,107.606056 93.724121,113.128548 
	C107.878632,127.316124 121.566940,141.036407 135.743256,155.245850 
	C136.561401,154.278366 137.739548,152.885208 139.423431,150.979034 
M236.375916,415.159088 
	C225.070038,413.580475 213.764145,412.001862 202.012375,410.360992 
	C199.636246,419.377594 197.130890,428.884583 194.491714,438.899353 
	C209.336014,438.899353 223.293106,438.937042 237.248917,438.820465 
	C238.253906,438.812103 239.888504,437.876251 240.148697,437.036469 
	C242.288895,430.128845 244.172943,423.141876 246.285095,415.645111 
	C242.855484,415.461884 240.078217,415.313507 236.375916,415.159088 
M262.517151,438.906342 
	C267.182495,438.905457 271.856323,439.059845 276.507690,438.804443 
	C277.818848,438.732422 279.792725,437.755493 280.225037,436.691010 
	C283.901611,427.638000 287.292419,418.468933 290.749512,409.385376 
	C290.305420,409.134888 290.143463,408.961182 290.017578,408.984253 
	C279.573914,410.897278 269.127716,412.797485 258.702637,414.807587 
	C257.892426,414.963806 256.786163,415.765778 256.571167,416.491028 
	C254.417130,423.757385 252.421112,431.070618 250.230804,438.906342 
	C254.561630,438.906342 258.043640,438.906342 262.517151,438.906342 
z"/>
<path fill="#F6F6F7" opacity="1.000000" stroke="none" 
	d="
M93.435623,363.591400 
	C73.941330,338.422119 62.973415,310.338165 60.753201,278.893097 
	C60.671169,277.731262 60.198341,276.262360 60.717140,275.459961 
	C61.924656,273.592407 63.546734,270.813354 65.150887,270.708923 
	C66.800926,270.601532 69.699722,272.947510 70.166542,274.717255 
	C71.298088,279.007080 71.223732,283.600983 71.828705,288.046021 
	C75.464287,314.758545 85.994904,338.474976 102.973770,359.367889 
	C103.603867,360.143219 104.277168,360.884918 104.881981,361.679108 
	C106.956253,364.402863 107.525154,367.205475 104.521141,369.562561 
	C101.678093,371.793335 99.230675,370.534058 97.170921,368.097931 
	C95.988312,366.699219 94.831306,365.278870 93.435623,363.591400 
z"/>
<path fill="#F3F3F5" opacity="1.000000" stroke="none" 
	d="
M70.159210,236.040558 
	C71.289085,238.062607 72.790344,239.943375 72.731483,241.773972 
	C72.604355,245.727371 71.687996,249.656784 71.073006,253.592651 
	C70.557533,256.891571 68.617271,258.834595 65.281647,258.349274 
	C61.865250,257.852234 60.774284,255.207092 61.157982,252.039917 
	C61.616688,248.253571 62.253262,244.487305 62.873905,240.722427 
	C63.526325,236.764771 65.599709,234.756302 70.159210,236.040558 
z"/>
<path fill="#20253B" opacity="1.000000" stroke="none" 
	d="
M289.455841,126.370483 
	C347.130371,147.980988 380.039001,188.864105 387.048553,249.809647 
	C390.257446,277.709961 384.107880,304.081543 371.203156,328.923920 
	C367.850311,335.378296 368.080536,336.421387 374.206696,340.745483 
	C412.453461,367.742035 450.722900,394.706482 488.940765,421.743927 
	C508.289490,435.432281 509.722382,461.443024 492.001251,475.437805 
	C479.243378,485.513062 461.535248,485.069122 449.451080,473.714630 
	C430.394470,455.808777 411.669098,437.550201 392.817352,419.426544 
	C376.967529,404.188843 361.142487,388.925293 345.295288,373.684845 
	C340.969025,369.524200 339.531189,369.566437 334.211639,373.800049 
	C307.529541,395.035431 277.058136,405.618103 243.035477,405.394806 
	C171.610474,404.926086 111.125923,350.503113 102.772415,279.524261 
	C93.380196,199.719620 149.892670,128.498230 229.408661,120.014259 
	C249.719284,117.847214 269.629272,119.966270 289.455841,126.370483 
M175.019104,159.501358 
	C143.616028,181.480392 125.382065,211.544800 121.218849,249.573761 
	C113.256325,322.307556 171.497772,387.136414 244.762589,386.160645 
	C294.852356,385.493469 332.980286,362.296356 355.373932,317.477295 
	C377.545319,273.103119 373.627441,228.914291 344.347260,188.786133 
	C318.783447,153.751205 282.962494,137.261765 239.400589,138.460846 
	C216.164581,139.100449 195.011093,146.451523 175.019104,159.501358 
z"/>
<path fill="#1F253A" opacity="1.000000" stroke="none" 
	d="
M140.439774,73.425446 
	C154.143356,61.788143 167.580444,50.384953 181.167053,38.854862 
	C202.730103,62.153507 223.933578,85.063644 246.166260,109.085823 
	C216.739990,109.513702 190.366837,116.442101 166.681259,130.481476 
	C152.326721,116.128815 138.233063,102.037010 123.768150,87.573990 
	C128.818237,83.290619 134.495758,78.475090 140.439774,73.425446 
z"/>
<path fill="#1E243A" opacity="1.000000" stroke="none" 
	d="
M42.029701,164.799438 
	C40.388046,163.593674 39.035873,162.620377 37.076164,161.209763 
	C53.684486,147.102966 69.315773,133.826035 84.383057,121.028168 
	C98.868027,135.503281 112.949516,149.575180 127.244102,163.860031 
	C114.152306,179.566849 104.259285,197.645081 97.882545,218.518143 
	C78.941360,200.285019 60.630272,182.658463 42.029701,164.799438 
z"/>
<path fill="#20263C" opacity="1.000000" stroke="none" 
	d="
M150.209839,382.732422 
	C163.144775,392.888062 177.103683,400.507294 192.630859,406.386353 
	C189.932831,416.681030 187.364166,426.774231 184.535767,436.794098 
	C184.271271,437.731079 182.378448,438.775085 181.219696,438.801331 
	C173.399612,438.978638 165.571823,438.976318 157.751373,438.807709 
	C156.579498,438.782410 154.621552,437.788391 154.394180,436.894714 
	C149.604202,418.067871 144.708923,399.239471 144.866394,378.605011 
	C146.931915,380.199615 148.427750,381.354431 150.209839,382.732422 
z"/>
<path fill="#22283D" opacity="1.000000" stroke="none" 
	d="
M139.170563,151.235535 
	C137.739548,152.885208 136.561401,154.278366 135.743256,155.245850 
	C121.566940,141.036407 107.878632,127.316124 93.724121,113.128548 
	C100.202003,107.606056 107.462685,101.416222 114.345230,95.548744 
	C128.283249,109.546753 141.949844,123.272163 155.742432,137.124115 
	C150.738464,141.372513 145.080948,146.175766 139.170563,151.235535 
z"/>
<path fill="#22283D" opacity="1.000000" stroke="none" 
	d="
M236.838440,415.162109 
	C240.078217,415.313507 242.855484,415.461884 246.285095,415.645111 
	C244.172943,423.141876 242.288895,430.128845 240.148697,437.036469 
	C239.888504,437.876251 238.253906,438.812103 237.248917,438.820465 
	C223.293106,438.937042 209.336014,438.899353 194.491714,438.899353 
	C197.130890,428.884583 199.636246,419.377594 202.012375,410.360992 
	C213.764145,412.001862 225.070038,413.580475 236.838440,415.162109 
z"/>
<path fill="#22283E" opacity="1.000000" stroke="none" 
	d="
M262.021423,438.906342 
	C258.043640,438.906342 254.561630,438.906342 250.230804,438.906342 
	C252.421112,431.070618 254.417130,423.757385 256.571167,416.491028 
	C256.786163,415.765778 257.892426,414.963806 258.702637,414.807587 
	C269.127716,412.797485 279.573914,410.897278 290.017578,408.984253 
	C290.143463,408.961182 290.305420,409.134888 290.749512,409.385376 
	C287.292419,418.468933 283.901611,427.638000 280.225037,436.691010 
	C279.792725,437.755493 277.818848,438.732422 276.507690,438.804443 
	C271.856323,439.059845 267.182495,438.905457 262.021423,438.906342 
z"/>
<path fill="#F7F7F8" opacity="1.000000" stroke="none" 
	d="
M175.314209,159.293762 
	C195.011093,146.451523 216.164581,139.100449 239.400589,138.460846 
	C282.962494,137.261765 318.783447,153.751205 344.347260,188.786133 
	C373.627441,228.914291 377.545319,273.103119 355.373932,317.477295 
	C332.980286,362.296356 294.852356,385.493469 244.762589,386.160645 
	C171.497772,387.136414 113.256325,322.307556 121.218849,249.573761 
	C125.382065,211.544800 143.616028,181.480392 175.314209,159.293762 
M215.745682,267.967072 
	C218.765747,265.701630 221.785828,263.436188 224.805908,261.170746 
	C224.344147,260.571014 223.882370,259.971283 223.420593,259.371552 
	C220.592361,261.701904 217.764145,264.032257 214.365097,266.456665 
	C214.067932,266.696991 213.770752,266.937317 212.728378,267.314148 
	C190.980484,276.573517 170.522812,265.050293 167.631317,241.660721 
	C166.591202,233.247238 166.308167,224.736969 165.775803,216.264816 
	C165.186996,206.894699 162.761932,198.313705 155.204575,190.756683 
	C154.784164,191.610962 154.581329,192.275909 154.184860,192.792145 
	C141.630905,209.138412 134.026108,227.534729 131.598434,247.991074 
	C131.410400,249.575607 132.591690,251.731674 133.794052,252.997482 
	C137.803604,257.218536 142.145325,261.121857 146.300751,265.206909 
	C158.696838,277.393097 161.893692,291.806915 156.637222,308.244843 
	C154.966324,313.470062 153.170929,318.662750 151.745316,323.954590 
	C151.331085,325.492157 151.401077,327.752472 152.263397,328.952759 
	C165.115906,346.842163 181.853256,359.804352 202.746613,368.265991 
	C203.755676,364.833771 204.630737,361.679474 205.609344,358.557648 
	C211.931824,338.388611 213.396408,318.143646 206.844223,297.698669 
	C203.223602,286.401093 206.145615,276.731354 214.891586,268.438080 
	C214.891586,268.438080 215.074249,268.119598 215.745682,267.967072 
M281.434387,259.093231 
	C281.434387,259.093231 281.374359,259.148529 281.391449,259.917419 
	C290.210327,275.489624 291.894257,291.912079 287.073914,309.037445 
	C281.575928,328.570160 275.958374,348.069275 270.405670,367.586639 
	C269.892212,369.391571 269.471954,371.223053 268.879150,373.549408 
	C283.917908,370.319550 296.952759,364.618561 308.839996,356.364502 
	C310.310852,355.343201 311.333954,353.317566 311.994354,351.544922 
	C317.801910,335.956696 323.468445,320.315979 329.199921,304.699341 
	C334.765991,289.533508 337.527191,273.866547 337.316376,257.726746 
	C336.806488,218.697800 320.531433,186.729919 293.102692,159.850479 
	C291.842743,158.615753 290.139923,157.704071 288.487061,157.018906 
	C269.774719,149.261841 250.333252,146.643509 230.243774,149.156418 
	C217.984161,150.689941 206.255096,154.065765 194.731766,159.784042 
	C195.838867,161.002853 196.485291,161.968338 197.358826,162.637253 
	C206.994980,170.016235 216.500092,177.582413 226.377960,184.624847 
	C235.188538,190.906357 245.722687,195.064377 250.858353,207.317749 
	C251.153549,193.210953 257.511658,187.209854 270.002808,187.746506 
	C277.800751,188.081512 284.103210,191.526169 288.738434,197.766968 
	C292.113251,202.310760 295.313293,206.992386 298.426392,211.721115 
	C308.167236,226.517395 311.456024,242.867828 309.855347,260.339111 
	C309.311157,266.278717 305.886414,270.611023 300.994904,271.745270 
	C295.835541,272.941589 291.356445,270.804199 287.903290,265.671448 
	C286.360413,263.378052 284.595276,261.234222 283.011383,258.473694 
	C282.719299,258.272614 282.427216,258.071564 282.069672,257.151306 
	C272.992615,240.141571 263.026276,223.688416 251.949615,207.849503 
	C255.307861,221.421310 252.939651,233.125427 242.828522,242.735840 
	C239.137558,246.244003 234.892517,249.163025 231.010666,252.480042 
	C229.693634,253.605438 228.715820,255.127838 227.582993,256.468811 
	C227.902191,256.771118 228.221390,257.073425 228.540573,257.375763 
	C232.936279,254.385529 237.268784,251.296860 241.740646,248.425262 
	C251.483109,242.169144 261.619232,241.638077 271.237854,248.131790 
	C275.249390,250.840088 278.025360,255.378540 281.434387,259.093231 
M221.020737,331.389648 
	C218.497543,344.727295 215.974335,358.064972 213.384430,371.755188 
	C227.042664,376.030457 241.390686,376.909149 255.912064,375.544434 
	C256.959961,375.445953 258.301056,373.460846 258.691162,372.116547 
	C265.088898,350.069916 271.487183,328.021637 277.605713,305.896423 
	C281.754456,290.894165 279.811371,276.525543 271.836029,263.085449 
	C265.753235,252.834747 255.529312,250.682571 245.936737,257.696136 
	C238.269379,263.302063 230.703705,269.048248 223.136597,274.789764 
	C215.862427,280.309021 213.765793,286.162262 216.448196,294.941345 
	C219.990677,306.535339 221.580887,318.326538 221.020737,331.389648 
M217.039169,251.556595 
	C222.754395,246.721298 228.667084,242.095428 234.106033,236.967117 
	C237.062119,234.179886 239.970535,230.872299 241.580429,227.217896 
	C245.877579,217.463516 242.077621,207.025940 232.843369,200.675308 
	C220.660355,192.296707 208.458405,183.938858 196.472412,175.284271 
	C192.369659,172.321854 188.893265,168.491974 184.557739,164.535568 
	C176.911469,170.756104 169.536880,176.755646 162.185883,182.735992 
	C172.959991,196.612823 175.106750,202.707962 175.985931,219.305817 
	C176.399139,227.106735 176.960205,234.916245 177.894318,242.668823 
	C178.943481,251.376358 185.104752,257.902954 193.611115,260.036285 
	C202.996780,262.390137 210.043961,258.057037 217.039169,251.556595 
M357.929169,275.295166 
	C358.019653,274.133209 358.110474,272.971252 358.200684,271.809265 
	C360.622833,240.607056 351.724487,212.979736 331.914124,188.831757 
	C330.828705,187.508652 329.284607,186.561813 327.954010,185.439819 
	C327.533417,186.984085 327.866547,187.684921 328.244751,188.360519 
	C349.069427,225.557510 352.775177,264.476654 339.651489,304.946075 
	C335.954895,316.345245 331.527130,327.507324 327.434723,338.778168 
	C345.090576,321.510681 354.558044,300.337189 357.929169,275.295166 
M284.298859,240.221954 
	C288.756744,247.592636 293.214661,254.963318 297.672546,262.334015 
	C298.358124,262.128784 299.043671,261.923553 299.729248,261.718353 
	C299.934967,257.830475 300.343170,253.941010 300.312134,250.055054 
	C300.160919,231.120728 290.830261,216.021606 279.163269,202.306870 
	C276.734833,199.452271 271.270264,198.301239 267.096405,198.029053 
	C261.641296,197.673294 260.519592,200.508987 263.409912,205.356369 
	C270.223877,216.784149 277.087433,228.182343 284.298859,240.221954 
M142.671585,275.881897 
	C139.177841,272.034607 135.684082,268.187286 132.190338,264.339996 
	C131.682236,264.728577 131.174133,265.117188 130.666031,265.505768 
	C131.179199,282.702118 135.171875,298.996735 143.508743,314.879608 
	C149.378021,301.435120 152.348648,288.830780 142.671585,275.881897 
z"/>
<path fill="#1F253B" opacity="1.000000" stroke="none" 
	d="
M282.931030,259.022522 
	C284.595276,261.234222 286.360413,263.378052 287.903290,265.671448 
	C291.356445,270.804199 295.835541,272.941589 300.994904,271.745270 
	C305.886414,270.611023 309.311157,266.278717 309.855347,260.339111 
	C311.456024,242.867828 308.167236,226.517395 298.426392,211.721115 
	C295.313293,206.992386 292.113251,202.310760 288.738434,197.766968 
	C284.103210,191.526169 277.800751,188.081512 270.002808,187.746506 
	C257.511658,187.209854 251.153549,193.210953 250.858353,207.317749 
	C245.722687,195.064377 235.188538,190.906357 226.377960,184.624847 
	C216.500092,177.582413 206.994980,170.016235 197.358826,162.637253 
	C196.485291,161.968338 195.838867,161.002853 194.731766,159.784042 
	C206.255096,154.065765 217.984161,150.689941 230.243774,149.156418 
	C250.333252,146.643509 269.774719,149.261841 288.487061,157.018906 
	C290.139923,157.704071 291.842743,158.615753 293.102692,159.850479 
	C320.531433,186.729919 336.806488,218.697800 337.316376,257.726746 
	C337.527191,273.866547 334.765991,289.533508 329.199921,304.699341 
	C323.468445,320.315979 317.801910,335.956696 311.994354,351.544922 
	C311.333954,353.317566 310.310852,355.343201 308.839996,356.364502 
	C296.952759,364.618561 283.917908,370.319550 268.879150,373.549408 
	C269.471954,371.223053 269.892212,369.391571 270.405670,367.586639 
	C275.958374,348.069275 281.575928,328.570160 287.073914,309.037445 
	C291.894257,291.912079 290.210327,275.489624 281.769348,259.446533 
	C282.408478,258.991272 282.669769,259.006897 282.931030,259.022522 
z"/>
<path fill="#1F253A" opacity="1.000000" stroke="none" 
	d="
M214.545120,268.559540 
	C206.145615,276.731354 203.223602,286.401093 206.844223,297.698669 
	C213.396408,318.143646 211.931824,338.388611 205.609344,358.557648 
	C204.630737,361.679474 203.755676,364.833771 202.746613,368.265991 
	C181.853256,359.804352 165.115906,346.842163 152.263397,328.952759 
	C151.401077,327.752472 151.331085,325.492157 151.745316,323.954590 
	C153.170929,318.662750 154.966324,313.470062 156.637222,308.244843 
	C161.893692,291.806915 158.696838,277.393097 146.300751,265.206909 
	C142.145325,261.121857 137.803604,257.218536 133.794052,252.997482 
	C132.591690,251.731674 131.410400,249.575607 131.598434,247.991074 
	C134.026108,227.534729 141.630905,209.138412 154.184860,192.792145 
	C154.581329,192.275909 154.784164,191.610962 155.204575,190.756683 
	C162.761932,198.313705 165.186996,206.894699 165.775803,216.264816 
	C166.308167,224.736969 166.591202,233.247238 167.631317,241.660721 
	C170.522812,265.050293 190.980484,276.573517 213.358643,267.599396 
	C214.174316,268.109619 214.359726,268.334595 214.545120,268.559540 
z"/>
<path fill="#1E243A" opacity="1.000000" stroke="none" 
	d="
M221.054443,330.904510 
	C221.580887,318.326538 219.990677,306.535339 216.448196,294.941345 
	C213.765793,286.162262 215.862427,280.309021 223.136597,274.789764 
	C230.703705,269.048248 238.269379,263.302063 245.936737,257.696136 
	C255.529312,250.682571 265.753235,252.834747 271.836029,263.085449 
	C279.811371,276.525543 281.754456,290.894165 277.605713,305.896423 
	C271.487183,328.021637 265.088898,350.069916 258.691162,372.116547 
	C258.301056,373.460846 256.959961,375.445953 255.912064,375.544434 
	C241.390686,376.909149 227.042664,376.030457 213.384430,371.755188 
	C215.974335,358.064972 218.497543,344.727295 221.054443,330.904510 
z"/>
<path fill="#1F253A" opacity="1.000000" stroke="none" 
	d="
M216.760010,251.779053 
	C210.043961,258.057037 202.996780,262.390137 193.611115,260.036285 
	C185.104752,257.902954 178.943481,251.376358 177.894318,242.668823 
	C176.960205,234.916245 176.399139,227.106735 175.985931,219.305817 
	C175.106750,202.707962 172.959991,196.612823 162.185883,182.735992 
	C169.536880,176.755646 176.911469,170.756104 184.557739,164.535568 
	C188.893265,168.491974 192.369659,172.321854 196.472412,175.284271 
	C208.458405,183.938858 220.660355,192.296707 232.843369,200.675308 
	C242.077621,207.025940 245.877579,217.463516 241.580429,227.217896 
	C239.970535,230.872299 237.062119,234.179886 234.106033,236.967117 
	C228.667084,242.095428 222.754395,246.721298 216.760010,251.779053 
z"/>
<path fill="#262B40" opacity="1.000000" stroke="none" 
	d="
M357.896179,275.746704 
	C354.558044,300.337189 345.090576,321.510681 327.434723,338.778168 
	C331.527130,327.507324 335.954895,316.345245 339.651489,304.946075 
	C352.775177,264.476654 349.069427,225.557510 328.244751,188.360519 
	C327.866547,187.684921 327.533417,186.984085 327.954010,185.439819 
	C329.284607,186.561813 330.828705,187.508652 331.914124,188.831757 
	C351.724487,212.979736 360.622833,240.607056 358.200684,271.809265 
	C358.110474,272.971252 358.019653,274.133209 357.896179,275.746704 
z"/>
<path fill="#23293E" opacity="1.000000" stroke="none" 
	d="
M284.114899,239.907227 
	C277.087433,228.182343 270.223877,216.784149 263.409912,205.356369 
	C260.519592,200.508987 261.641296,197.673294 267.096405,198.029053 
	C271.270264,198.301239 276.734833,199.452271 279.163269,202.306870 
	C290.830261,216.021606 300.160919,231.120728 300.312134,250.055054 
	C300.343170,253.941010 299.934967,257.830475 299.729248,261.718353 
	C299.043671,261.923553 298.358124,262.128784 297.672546,262.334015 
	C293.214661,254.963318 288.756744,247.592636 284.114899,239.907227 
z"/>
<path fill="#262B40" opacity="1.000000" stroke="none" 
	d="
M281.363159,259.084808 
	C278.025360,255.378540 275.249390,250.840088 271.237854,248.131790 
	C261.619232,241.638077 251.483109,242.169144 241.740646,248.425262 
	C237.268784,251.296860 232.936279,254.385529 228.540573,257.375763 
	C228.221390,257.073425 227.902191,256.771118 227.582993,256.468811 
	C228.715820,255.127838 229.693634,253.605438 231.010666,252.480042 
	C234.892517,249.163025 239.137558,246.244003 242.828522,242.735840 
	C252.939651,233.125427 255.307861,221.421310 251.949615,207.849503 
	C263.026276,223.688416 272.992615,240.141571 281.885010,257.798981 
	C281.587982,258.659393 281.475555,258.872101 281.363159,259.084808 
z"/>
<path fill="#242A3F" opacity="1.000000" stroke="none" 
	d="
M142.897583,276.165710 
	C152.348648,288.830780 149.378021,301.435120 143.508743,314.879608 
	C135.171875,298.996735 131.179199,282.702118 130.666031,265.505768 
	C131.174133,265.117188 131.682236,264.728577 132.190338,264.339996 
	C135.684082,268.187286 139.177841,272.034607 142.897583,276.165710 
z"/>
<path fill="#5C6170" opacity="1.000000" stroke="none" 
	d="
M214.935913,266.362610 
	C217.764145,264.032257 220.592361,261.701904 223.420593,259.371552 
	C223.882370,259.971283 224.344147,260.571014 224.805908,261.170746 
	C221.785828,263.436188 218.765747,265.701630 215.362427,267.605103 
	C214.964767,266.949646 214.950348,266.656128 214.935913,266.362610 
z"/>
<path fill="#262B40" opacity="1.000000" stroke="none" 
	d="
M282.971191,258.748108 
	C282.669769,259.006897 282.408478,258.991272 281.760803,259.062073 
	C281.374359,259.148529 281.434387,259.093231 281.398773,259.089020 
	C281.475555,258.872101 281.587982,258.659393 281.917755,258.158569 
	C282.427216,258.071564 282.719299,258.272614 282.971191,258.748108 
z"/>
<path fill="#1F253A" opacity="1.000000" stroke="none" 
	d="
M214.650513,266.409637 
	C214.950348,266.656128 214.964767,266.949646 215.026703,267.681366 
	C215.074249,268.119598 214.891586,268.438080 214.718353,268.498810 
	C214.359726,268.334595 214.174316,268.109619 213.731232,267.531128 
	C213.770752,266.937317 214.067932,266.696991 214.650513,266.409637 
z"/>
</svg>